<?xml version="1.0" encoding="UTF-8"?>
<svg width="253px" height="26px" viewBox="0 0 253 26" version="1.1" xmlns="http://www.w3.org/2000/svg" xmlns:xlink="http://www.w3.org/1999/xlink">
    <!-- Generator: Sketch 61.2 (89653) - https://sketch.com -->
    <title>bi_toastcambiz_blue</title>
    <desc>Created with Sketch.</desc>
    <g id="Page-1" stroke="none" stroke-width="1" fill="none" fill-rule="evenodd">
        <g id="01_aos_빈매장" transform="translate(-54.000000, -278.000000)" fill="#4B96E6">
            <g id="bi_toastcambiz_blue" transform="translate(54.000000, 278.000000)">
                <g id="Group-29">
                    <path d="M239.9508,0 C246.9688,0 252.6778,5.709 252.6778,12.727 C252.6778,19.745 246.9688,25.454 239.9508,25.454 L239.9508,25.454 L218.6498,25.454 C211.6318,25.454 205.9228,19.745 205.9228,12.727 C205.9228,5.709 211.6318,0 218.6498,0 L218.6498,0 Z M231.6793,10.098 L229.5123,10.098 L229.5123,17.393 C229.5123,19.058 230.3053,19.909 232.0663,19.909 C232.2983,19.909 232.4923,19.87 232.4923,19.87 L232.4923,18.109 C231.8733,18.109 231.6793,17.916 231.6793,17.374 L231.6793,10.098 Z M221.9805,5.2598 L217.1035,5.2598 L217.1035,19.7728 L222.0955,19.7728 C225.8505,19.7728 227.0305,17.9158 227.0305,15.5158 C227.0305,13.8518 226.2365,12.5168 224.8435,12.1108 C225.9465,11.5878 226.5855,10.4658 226.5855,9.2268 C226.5855,6.9828 225.5215,5.2598 221.9805,5.2598 Z M242.3463,10.0979 L234.9933,10.0979 L234.9933,12.0129 L239.5593,11.9949 L234.6453,18.2449 L234.6453,19.7729 L242.5593,19.7729 L242.5593,17.8569 L237.4313,17.8769 L242.3463,11.6269 L242.3463,10.0979 Z M222.1935,13.1548 C224.0315,13.1548 224.7085,13.9678 224.7085,15.4578 C224.7085,16.6568 224.2055,17.7798 222.1735,17.7798 L219.2715,17.7798 L219.2715,13.1548 L222.1935,13.1548 Z M222.0375,7.2528 C223.9345,7.2528 224.2635,8.3558 224.2635,9.3238 C224.2635,10.2528 223.8575,11.3178 222.1155,11.3178 L219.2715,11.3178 L219.2715,7.2528 L222.0375,7.2528 Z M230.5953,5.821 C229.8223,5.821 229.1823,6.46 229.1823,7.233 C229.1823,8.008 229.8223,8.647 230.5953,8.647 C231.3693,8.647 232.0083,8.008 232.0083,7.233 C232.0083,6.46 231.3693,5.821 230.5953,5.821 Z" id="Combined-Shape"></path>
                    <path d="M38.8649,0.2563 C31.9719,0.2563 26.3849,5.8443 26.3829,12.7363 C26.3849,19.6303 31.9719,25.2193 38.8649,25.2193 C45.7589,25.2173 51.3449,19.6303 51.3469,12.7363 C51.3449,5.8443 45.7589,0.2563 38.8649,0.2563" id="Fill-11"></path>
                    <path d="M77.3434,22.7573 L65.1014,1.5513 C64.8924,1.1913 64.5094,0.9693 64.0934,0.9693 C63.6764,0.9693 63.2924,1.1923 63.0854,1.5513 L50.8424,22.7603 C50.7374,22.9393 50.6854,23.1403 50.6863858,23.3413 C50.6854,23.5423 50.7374,23.7443 50.8424,23.9243 C51.0504,24.2833 51.4324,24.5053 51.8494,24.5053 L76.3364,24.5053 C76.7534,24.5053 77.1384,24.2833 77.3454,23.9223 C77.4494,23.7443 77.5024,23.5423 77.5024,23.3413 C77.5024,23.1393 77.4494,22.9383 77.3434,22.7573" id="Fill-13"></path>
                    <path d="M23.1935,1.3096 C22.9745,1.0916 22.6835,0.9716 22.3725,0.9696 L1.1645,0.9696 C0.8535,0.9706 0.5625,1.0916 0.3405,1.3106 C0.1225,1.5306 0.0015,1.8226 0.0005,2.1326 L0.0005,11.5746 C0.0015,11.8856 0.1225,12.1766 0.3405,12.3966 C0.5625,12.6166 0.8555,12.7366 1.1645,12.7376 L5.8845,12.7376 L5.8845,23.3416 C5.8865,23.6516 6.0065,23.9446 6.2285,24.1676 C6.4455,24.3846 6.7395,24.5046 7.0495,24.5056 L16.4875,24.5056 C16.7985,24.5046 17.0905,24.3846 17.3085,24.1676 C17.5305,23.9446 17.6515,23.6516 17.6525,23.3416 L17.6525,12.7376 L22.0745,12.7376 C22.6825,12.7366 22.9735,12.6166 23.1955,12.3966 C23.4165,12.1766 23.5345,11.8816 23.5355,11.5746 L23.5355,2.1326 C23.5345,1.8256 23.4165,1.5306 23.1935,1.3096" id="Fill-15"></path>
                    <path d="M127.3327,1.3096 C127.1157,1.0916 126.8247,0.9706 126.5127,0.9696 L105.3037,0.9696 C104.9937,0.9696 104.7007,1.0916 104.4797,1.3106 C104.2617,1.5306 104.1397,1.8216 104.1397,2.1326 L104.1397,11.5746 C104.1397,11.8856 104.2617,12.1766 104.4797,12.3966 C104.7007,12.6166 104.9947,12.7366 105.3037,12.7366 L110.0237,12.7366 L110.0237,23.3416 C110.0267,23.6516 110.1457,23.9446 110.3677,24.1676 C110.5857,24.3846 110.8787,24.5046 111.1887,24.5056 L120.6287,24.5056 C120.9377,24.5036 121.2297,24.3846 121.4477,24.1676 C121.6707,23.9446 121.7907,23.6516 121.7917,23.3416 L121.7917,12.7366 L126.2137,12.7366 C126.8217,12.7366 127.1147,12.6166 127.3357,12.3966 C127.5557,12.1766 127.6747,11.8816 127.6757,11.5746 L127.6757,2.1326 C127.6747,1.8256 127.5557,1.5306 127.3327,1.3096" id="Fill-17"></path>
                    <path d="M97.3883,8.2485 L100.5803,2.7155 C100.6863,2.5365 100.7383,2.3345 100.7383,2.1335 C100.7383,1.9325 100.6863,1.7305 100.5803,1.5525 C100.3733,1.1915 99.9893,0.9695 99.5743,0.9695 L87.0113,0.9695 C82.2423,0.9705 78.3723,4.8255 78.3493,9.5895 C78.3513,12.8715 80.1753,15.7265 82.8653,17.1955 L79.6533,22.7585 C79.5503,22.9365 79.4973,23.1395 79.4973,23.3405 C79.4973,23.5415 79.5503,23.7445 79.6533,23.9235 C79.8603,24.2835 80.2443,24.5055 80.6603,24.5055 L93.2233,24.5055 C98.0073,24.5035 101.8833,20.6275 101.8853,15.8435 C101.8843,12.5685 100.0683,9.7205 97.3883,8.2485" id="Fill-19"></path>
                    <path d="M147.8444,21.4609 L143.1024,21.4609 C139.9854,21.4609 137.7644,19.0249 137.7644,16.0159 L137.7644,9.4599 C137.7644,6.4509 140.0934,4.0149 143.1024,4.0149 L147.4504,4.0149 C148.3094,4.0149 148.9194,3.3699 148.9194,2.5099 C148.9194,1.6509 148.3094,0.9699 147.4504,0.9699 L143.1024,0.9699 C138.4094,0.9699 134.5394,4.7679 134.5394,9.4599 L134.5394,16.0159 C134.5394,20.6729 138.3024,24.5059 143.1024,24.5059 L147.8444,24.5059 C148.7034,24.5059 149.2774,23.8609 149.2774,23.0019 C149.2774,22.1419 148.7034,21.4609 147.8444,21.4609" id="Fill-21"></path>
                    <path d="M193.3839,0.6118 C191.6999,0.6118 190.6249,1.3278 190.0879,2.7968 L185.2519,16.1228 L184.4639,19.4548 C184.4279,19.5978 184.3919,19.7418 184.3919,19.9208 C184.3919,20.7448 185.0729,21.4248 186.0039,21.4248 C186.8639,21.4248 187.3659,20.8518 187.5449,20.1358 L188.2249,17.0548 L192.9179,3.9078 C192.9899,3.7288 193.0969,3.6568 193.2769,3.6568 C193.5989,3.6568 193.7779,3.7998 193.7779,4.1218 L193.7779,23.3598 C193.7779,24.2198 194.3869,24.8638 195.3539,24.8638 C196.3579,24.8638 197.0019,24.2198 197.0019,23.3598 L197.0019,4.1218 C197.0019,2.1878 195.4969,0.6118 193.3839,0.6118" id="Fill-23"></path>
                    <path d="M185.1803,13.1855 C185.1803,12.9705 185.1443,12.7555 185.0733,12.5405 L181.5613,2.7965 C181.0253,1.3285 179.9503,0.6115 178.2663,0.6115 C176.2243,0.6115 174.6833,2.1875 174.6833,4.1225 L174.6833,23.3595 C174.6833,24.2195 175.2933,24.8645 176.2963,24.8645 C177.1553,24.8645 177.9083,24.2195 177.9083,23.3595 L177.9083,4.1225 C177.9083,3.7995 178.0513,3.6565 178.3743,3.6565 C178.5533,3.6565 178.6963,3.7285 178.7673,3.9075 L182.2063,13.6515 C182.4573,14.3685 183.0303,14.6905 183.6393,14.6905 C184.4643,14.6905 185.1803,14.0095 185.1803,13.1855" id="Fill-25"></path>
                    <path d="M171.2794,22.9712 L165.4444,3.2272 C164.9794,1.6862 163.6534,0.5752 161.8984,0.5752 C160.1424,0.5752 158.8164,1.6862 158.3514,3.2272 L152.5164,22.9712 C152.4794,23.1502 152.442373,23.2932 152.442373,23.4362 C152.4374,24.2242 153.1154,24.8732 154.0824,24.8782279 C154.9064,24.8822 155.4464,24.4552 155.6284,23.7752 L161.3244,4.1222 C161.4324,3.8002 161.6474,3.6212 161.8984,3.6212 C162.1484,3.6212 162.3634,3.8002 162.4704,4.1222 L165.4924,14.5472 L161.0024,14.5472 C160.1424,14.5472 159.6054,15.2282 159.6054,16.0872 C159.6054,16.9472 160.1424,17.5922 161.0024,17.5922 L166.3754,17.5922 L168.1674,23.7752 C168.3494,24.4552 168.8894,24.8822 169.7134,24.8782279 C170.6804,24.8732 171.3584,24.2242 171.353427,23.4362 C171.353427,23.2932 171.3164,23.1502 171.2794,22.9712" id="Fill-27"></path>
                </g>
            </g>
        </g>
    </g>
</svg>